<svg
    xmlns="http://www.w3.org/2000/svg"
    xmlns:xlink="http://www.w3.org/1999/xlink"
    version="1.1"
    x="0px"
    y="0px"
    viewBox="0 0 87 87"
    enable-background="new 0 0 100 100"
    xml:space="preserve"
    fill="currentColor"
>
    <g>
        <circle cx="18.755" cy="27.629" r="6.712" />
        <path
            d="M25.467,50c0,3.706-3.005,6.714-6.712,6.714c-3.705,0-6.712-3.007-6.712-6.714c0-3.703,3.006-6.71,6.712-6.71   C22.462,43.29,25.467,46.297,25.467,50z"
        />
        <path
            d="M25.467,72.375c0,3.702-3.005,6.71-6.712,6.71c-3.705,0-6.712-3.007-6.712-6.71c0-3.707,3.006-6.714,6.712-6.714   C22.462,65.661,25.467,68.669,25.467,72.375z"
        />
        <g><rect x="34.261" y="25.389" width="53.695" height="4.476" /></g>
        <g><rect x="34.261" y="47.764" width="53.695" height="4.476" /></g>
        <g><rect x="34.261" y="70.135" width="53.695" height="4.476" /></g>
    </g>
</svg>
