<svg width="512" height="512" xmlns="http://www.w3.org/2000/svg" version="1.1" background="black">
    <g>
        <title>Layer 1</title>
        <g id="surface1">
            <path
                d="m501.23797,392.17578l-78.91015,-96.04297l13.67968,-13.67968c8.90235,-8.90235 13.8086,-20.73829 13.8086,-33.32813c0,-12.58984 -4.90625,-24.42969 -13.8086,-33.32812c0,-0.00391 -0.0039,-0.00391 -0.0039,-0.00782l-58.58203,-58.57812c-11.39844,-11.40235 -29.09766,-21.26563 -47.10157,-27.1211c13.02344,-13.82812 21.03125,-32.43359 21.03125,-52.88281c0,-42.57031 -34.63281,-77.20703 -77.20312,-77.20703c-42.57422,0 -77.20703,34.63672 -77.20703,77.20703c0,20.44922 8.0039,39.05469 21.03125,52.88281c-18.00391,5.85157 -35.70313,15.71875 -47.10156,27.1211l-58.58594,58.58594c-8.90235,8.90234 -13.80469,20.73828 -13.80469,33.32812c0,12.58984 4.90234,24.42578 13.80469,33.32422l32.13281,32.13672c8.90234,8.90234 20.73828,13.80469 33.32813,13.80469c5.95703,0 11.74609,-1.09766 17.13281,-3.19922l0,139.67578c0,25.98828 21.14453,47.13281 47.13281,47.13281c12.41016,0 23.71094,-4.81641 32.13672,-12.67969c8.42578,7.86328 19.72656,12.67969 32.13281,12.67969c25.98828,0 47.13281,-21.14453 47.13281,-47.13281l0,-17.13281l121.56641,0c16.56641,0 29.12109,-6.45704 34.4375,-17.71094c5.32031,-11.25 2.33594,-25.04688 -8.17969,-37.84766zm-227.08984,-362.17578c26.02734,0 47.20312,21.17578 47.20312,47.20703c0,26.02735 -21.17578,47.20703 -47.20312,47.20703c-26.03125,0 -47.20703,-21.17968 -47.20703,-47.20703c0,-26.03125 21.17578,-47.20703 47.20703,-47.20703zm-84.28516,263.37109c-3.23828,3.23829 -7.53906,5.01954 -12.11718,5.01954c-4.57813,0 -8.87891,-1.78125 -12.11329,-5.01954l-32.13671,-32.13671c-3.23438,-3.23438 -5.01563,-7.53516 -5.01563,-12.10938c0,-4.57812 1.78125,-8.87891 5.01563,-12.11719l58.58984,-58.58593c12.78516,-12.78907 39.87109,-24.00782 57.96094,-24.00782l48.19922,0c18.08984,0 45.17187,11.21875 57.96093,24.00782l58.58203,58.58593c0.00391,0 0.00391,0 0.00391,0.00391c3.23828,3.23437 5.01953,7.53906 5.01953,12.11328c0,4.57422 -1.78125,8.87891 -5.01953,12.11328l-32.13281,32.13281c-6.67969,6.6836 -17.54688,6.6836 -24.23047,0c-3.21484,-3.21484 -4.99609,-7.48046 -5.01563,-12.02343l0,-0.17969c0.01954,-4.54297 1.80079,-8.80859 5.01563,-12.02344l9.41406,-9.41406c2.8125,-2.8125 4.39453,-6.62891 4.39453,-10.60547c0,-3.98047 -1.58203,-7.79687 -4.39453,-10.60937l-18.82422,-18.82032c-4.29297,-4.28906 -10.73828,-5.57422 -16.34765,-3.2539c-5.60547,2.32422 -9.25782,7.79297 -9.25782,13.85937l0,50.8086c0,0.04687 0,0.10156 0,0.14843c0,0.05078 0,0.10157 0,0.14844l0,7.79297l-98.53515,0l0,-7.76953c0,-0.0586 0,-0.11328 0,-0.17188c0,-0.05859 0,-0.11328 0,-0.17187l0,-50.78516c0,-6.0664 -3.65625,-11.53515 -9.25781,-13.85937c-5.60547,-2.32032 -12.0586,-1.03907 -16.34766,3.25l-18.82422,18.82422c-2.8125,2.8125 -4.39453,6.6289 -4.39453,10.60546c0,3.98047 1.58203,7.79688 4.39453,10.60938l9.41406,9.41406c3.21094,3.21094 4.98828,7.47266 5.01563,12.00781l0,0.20704c-0.02735,4.53906 -1.80469,8.80078 -5.01563,12.01171zm133.55078,171.4961c0,9.44531 -7.6875,17.13281 -17.13281,17.13281c-9.44922,0 -17.13281,-7.68359 -17.13281,-17.13281l0,-96.39844c0,-8.28516 -6.71875,-15 -15,-15c-8.28516,0 -15,6.71484 -15,15l0,96.39844c0,9.44531 -7.6875,17.13281 -17.13672,17.13281c-9.44531,0 -17.13281,-7.68359 -17.13281,-17.13281l0,-145.66797l98.53515,0l0,145.66797zm151.56641,-47.13281l-121.56641,0l0,-92.57032c15.70313,6.10157 34.04297,3.48047 47.48438,-7.85547l77.16016,93.91407c2.14062,2.60547 3.125,4.50781 3.57812,5.67187c-1.1875,0.39063 -3.28516,0.83985 -6.65625,0.83985zm0,0"
                fill-rule="nonzero"
                fill="white"
                id="svg_1"
            />
        </g>
        <path
            transform="rotate(135.782 70.3548 299.804)"
            stroke-width="20"
            fill="white"
            id="svg_6"
            d="m164.34356,178.6723l-33.42266,-20.21344c-8.43264,-5.09491 -19.54412,-2.64273 -24.85755,5.47302l-13.17376,20.17572l63.93896,38.64143l13.18415,-20.16636c5.29327,-8.12541 2.76699,-18.82682 -5.66914,-23.91037l0,0zm-185.23358,179.74437l63.94245,38.64103l104.21559,-159.63497l-63.97289,-38.65112l-104.18516,159.64505l0.00001,0.00001zm-9.7672,49.09487l-1.41226,36.29486l33.37139,-16.98434l31.0115,-15.75537l-61.68733,-37.30182l-1.28329,33.74668l0,0l-0.00001,-0.00001z"
        />
        
    </g>
</svg>
